#N canvas 505 25 762 319 10;
#N canvas 332 246 450 300 \$0-buttons 0;
#X obj 41 33 inlet;
#X obj 41 86 unpack 0 0;
#X obj 106 120 s \$0-byte2;
#X obj 41 140 s \$0-byte1;
#X connect 0 0 1 0;
#X connect 1 0 3 0;
#X connect 1 1 2 0;
#X restore 9 10 pd \$0-buttons;
#N canvas 659 225 450 300 \$0-guitar 0;
#X obj 126 105 inlet;
#X obj 126 157 s \$0-guitar-buttons;
#X connect 0 0 1 0;
#X restore 76 -34 pd \$0-guitar;
#X obj 9 -117 r wiimote-command;
#X obj 9 -90 wiimote wiimote-command;
#X obj 296 6 r \$0-guitar-buttons;
#X obj 88 113 *~ 0;
#X obj 140 89 / 127;
#X obj 144 61 hsl 128 15 0 127 0 0 empty empty empty -2 -8 0 10 -262144
-1 -1 0 1;
#X obj 78 146 dac~;
#N canvas 0 0 354 225 \$0-accel 0;
#X obj 11 27 inlet;
#X obj 11 87 wiiAcc raw;
#X obj 11 151 s \$0-accelX;
#X obj 43 132 s \$0-accelY;
#X obj 76 113 s \$0-accelZ;
#X connect 0 0 1 0;
#X connect 1 0 2 0;
#X connect 1 1 3 0;
#X connect 1 2 4 0;
#X restore 31 -13 pd \$0-accel;
#X obj 429 -122 cnv 15 230 185 empty empty empty 20 12 0 14 -258113
-66577 0;
#X msg 473 10 disconnect;
#X obj 439 33 s wiimote-command;
#X msg 458 -60 reportClassic 1;
#X msg 450 -86 setLED 9;
#X obj 630 -101 bng 15 250 50 0 empty empty empty 17 7 0 10 -4034 -1
-1;
#N canvas 0 60 1097 635 \$0-process-guitar 0;
#X obj 90 -69 inlet;
#X msg 24 107 0;
#X msg 61 107 1;
#X msg 96 107 2;
#X msg 130 107 3;
#X msg 164 107 4;
#X msg 197 107 5;
#X msg 228 107 6;
#X msg 260 107 7;
#X msg 293 107 8;
#X msg 325 107 9;
#X msg 357 107 10;
#X msg 391 107 11;
#X msg 426 107 12;
#X floatatom 240 249 5 0 0 0 - - -;
#X obj 90 55 sel 16400 16448 16392 16416 16464 16408 16456 16480 16424
16432 16472 16488 16504;
#X msg 24 107 0;
#X msg 61 107 1;
#X msg 96 107 2;
#X msg 130 107 3;
#X msg 164 107 4;
#X msg 197 107 5;
#X msg 228 107 6;
#X msg 260 107 7;
#X msg 293 107 8;
#X msg 325 107 9;
#X msg 357 107 10;
#X msg 391 107 11;
#X msg 426 107 12;
#X msg 612 105 4;
#X msg 645 105 5;
#X msg 678 105 7;
#X msg 711 105 8;
#X msg 743 105 10;
#X msg 776 105 12;
#X msg 809 105 14;
#X msg 841 105 16;
#X msg 872 105 17;
#X msg 903 105 19;
#X msg 935 105 20;
#X msg 967 105 22;
#X msg 999 105 24;
#X floatatom 58 -41 5 0 0 0 - - -;
#X msg 577 105 2;
#X msg 545 105 0;
#X obj 619 38 sel 17 65 9 33 81 25 73 97 41 49 89 105 121 113 57;
#N canvas 180 291 471 385 \$0-minor-chord 0;
#X obj 201 154 + 60;
#X obj 346 154 + 65;
#X obj 128 187 mtof;
#X obj 201 187 mtof;
#X obj 274 187 mtof;
#X obj 346 187 mtof;
#X obj 128 240 osc~;
#X obj 201 239 osc~;
#X obj 274 239 osc~;
#X obj 346 238 osc~;
#X obj 345 271 throw~ \$0-audio-out;
#X obj 275 292 throw~ \$0-audio-out;
#X obj 202 313 throw~ \$0-audio-out;
#X obj 127 334 throw~ \$0-audio-out;
#X obj 274 154 + 67;
#X obj 128 154 + 72;
#X obj 144 98 sel -1;
#X floatatom 71 187 5 0 0 0 - - -;
#X obj 144 37 inlet;
#X connect 0 0 3 0;
#X connect 1 0 5 0;
#X connect 2 0 6 0;
#X connect 3 0 7 0;
#X connect 4 0 8 0;
#X connect 5 0 9 0;
#X connect 6 0 13 0;
#X connect 7 0 12 0;
#X connect 8 0 11 0;
#X connect 9 0 10 0;
#X connect 14 0 4 0;
#X connect 15 0 2 0;
#X connect 16 0 17 0;
#X connect 16 1 15 0;
#X connect 16 1 0 0;
#X connect 16 1 14 0;
#X connect 16 1 1 0;
#X connect 17 0 9 0;
#X connect 17 0 8 0;
#X connect 17 0 7 0;
#X connect 17 0 6 0;
#X connect 18 0 16 0;
#X restore 753 277 pd \$0-minor-chord;
#X msg 1035 105 -1;
#N canvas 66 264 450 404 \$0-lame-organ 0;
#X obj 205 158 mtof;
#X floatatom 205 185 5 0 0 0 - - -;
#X obj 205 130 + 60;
#X obj 205 288 osc~;
#X obj 206 335 throw~ \$0-audio-out;
#X obj 123 128 + 65;
#X obj 123 154 mtof;
#X floatatom 123 184 5 0 0 0 - - -;
#X obj 123 288 osc~;
#X obj 80 334 throw~ \$0-audio-out;
#X obj 291 161 nbx 5 14 -1e+37 1e+37 0 0 empty \$0-whammy empty 0 -8
0 10 -262144 -1 -1 0 256;
#X obj 205 234 +;
#X obj 250 214 * 10;
#X obj 291 192 - 15;
#X obj 101 77 sel -1;
#X obj 101 35 inlet;
#X floatatom 59 221 5 0 0 0 - - -;
#X connect 0 0 1 0;
#X connect 1 0 11 0;
#X connect 2 0 0 0;
#X connect 3 0 4 0;
#X connect 5 0 6 0;
#X connect 6 0 7 0;
#X connect 7 0 8 0;
#X connect 8 0 9 0;
#X connect 10 0 13 0;
#X connect 11 0 3 0;
#X connect 12 0 11 1;
#X connect 13 0 12 0;
#X connect 14 0 16 0;
#X connect 14 1 2 0;
#X connect 14 1 5 0;
#X connect 15 0 14 0;
#X connect 16 0 8 0;
#X connect 16 0 3 0;
#X restore 229 398 pd \$0-lame-organ;
#X floatatom 753 231 5 0 0 0 - - -;
#X msg 460 107 -1;
#X text 137 32 Down Stroke;
#X text 678 14 Up Stroke;
#N canvas 650 323 450 300 \$0-lead-tone 0;
#X obj 31 19 inlet;
#X obj 31 57 sel -1;
#X msg 10 94 0;
#X obj 69 94 + 72;
#X obj 69 130 mtof;
#X obj 69 176 osc~;
#X obj 68 233 throw~ \$0-audio-out;
#X floatatom 125 19 5 0 0 0 - #0-whammy -;
#X obj 125 48 sel 19 20 21 22 23 24 25 26;
#X msg 182 96 -12;
#X msg 225 96 0;
#X obj 196 133 +;
#X obj 196 163 mtof;
#X obj 196 233 throw~ \$0-audio-out;
#X connect 0 0 1 0;
#X connect 1 0 2 0;
#X connect 1 0 3 0;
#X connect 2 0 5 0;
#X connect 3 0 4 0;
#X connect 3 0 11 0;
#X connect 4 0 5 0;
#X connect 5 0 6 0;
#X connect 7 0 8 0;
#X connect 8 0 9 0;
#X connect 8 1 9 0;
#X connect 8 2 9 0;
#X connect 8 3 9 0;
#X connect 8 4 9 0;
#X connect 8 5 9 0;
#X connect 8 6 9 0;
#X connect 8 7 9 0;
#X connect 8 8 10 0;
#X connect 9 0 11 1;
#X connect 10 0 11 1;
#X connect 11 0 12 0;
#X connect 12 0 13 0;
#X restore 395 398 pd \$0-lead-tone;
#X connect 0 0 15 0;
#X connect 0 0 42 0;
#X connect 0 0 45 0;
#X connect 1 0 14 0;
#X connect 2 0 14 0;
#X connect 3 0 14 0;
#X connect 4 0 14 0;
#X connect 5 0 14 0;
#X connect 6 0 14 0;
#X connect 7 0 14 0;
#X connect 8 0 14 0;
#X connect 9 0 14 0;
#X connect 10 0 14 0;
#X connect 11 0 14 0;
#X connect 12 0 14 0;
#X connect 13 0 14 0;
#X connect 14 0 48 0;
#X connect 15 0 1 0;
#X connect 15 1 2 0;
#X connect 15 2 3 0;
#X connect 15 3 4 0;
#X connect 15 4 5 0;
#X connect 15 5 6 0;
#X connect 15 6 7 0;
#X connect 15 7 8 0;
#X connect 15 8 9 0;
#X connect 15 9 10 0;
#X connect 15 10 11 0;
#X connect 15 11 12 0;
#X connect 15 12 13 0;
#X connect 15 13 50 0;
#X connect 29 0 49 0;
#X connect 30 0 49 0;
#X connect 31 0 49 0;
#X connect 32 0 49 0;
#X connect 33 0 49 0;
#X connect 34 0 49 0;
#X connect 35 0 49 0;
#X connect 36 0 49 0;
#X connect 37 0 49 0;
#X connect 38 0 49 0;
#X connect 39 0 49 0;
#X connect 40 0 49 0;
#X connect 41 0 49 0;
#X connect 43 0 49 0;
#X connect 44 0 49 0;
#X connect 45 0 44 0;
#X connect 45 1 43 0;
#X connect 45 2 29 0;
#X connect 45 3 30 0;
#X connect 45 4 31 0;
#X connect 45 5 32 0;
#X connect 45 6 33 0;
#X connect 45 7 34 0;
#X connect 45 8 35 0;
#X connect 45 9 36 0;
#X connect 45 10 37 0;
#X connect 45 11 38 0;
#X connect 45 12 39 0;
#X connect 45 13 40 0;
#X connect 45 14 41 0;
#X connect 45 15 47 0;
#X connect 47 0 49 0;
#X connect 49 0 46 0;
#X connect 50 0 14 0;
#X restore 296 32 pd \$0-process-guitar;
#X obj 87 36 catch~ \$0-audio-out;
#X msg 464 -34 reportAcceleration 1;
#N canvas 0 0 450 300 \$0-guitar-accel 0;
#X obj 136 76 inlet;
#X obj 136 109 unpack 0 0 0;
#X obj 215 129 s \$0-nc-accZ-set;
#X obj 136 167 s \$0-nc-accX-set;
#X obj 175 148 s \$0-whammy;
#X connect 0 0 1 0;
#X connect 1 0 3 0;
#X connect 1 1 4 0;
#X connect 1 2 2 0;
#X restore 99 -57 pd \$0-guitar-accel;
#X msg 470 -12 reportNunchuk 1;
#X text 408 145 Uses the Youngmusic Wiilib PD external. It can be found
here. http://youngmusic.org/wiki/index.php/Wiilib;
#X msg 439 -113 discover;
#X text 290 69 On the wiimote press 1 + 2 Click on discover and wait
until the wiimote connects. Click on the green bang. Click on disconnect
to turn off the wiimote.;
#X text 6 -148 This patch uses the guitar controller for the wii and
a bluetooth interface.;
#X connect 2 0 3 0;
#X connect 3 0 0 0;
#X connect 3 1 9 0;
#X connect 3 3 1 0;
#X connect 3 4 19 0;
#X connect 4 0 16 0;
#X connect 5 0 8 0;
#X connect 5 0 8 1;
#X connect 6 0 5 1;
#X connect 7 0 6 0;
#X connect 11 0 12 0;
#X connect 13 0 12 0;
#X connect 14 0 12 0;
#X connect 15 0 14 0;
#X connect 15 0 13 0;
#X connect 15 0 18 0;
#X connect 15 0 20 0;
#X connect 17 0 5 0;
#X connect 18 0 12 0;
#X connect 20 0 12 0;
#X connect 22 0 12 0;
