#N canvas 505 25 762 324 10;
#N canvas 332 246 450 300 \$0-buttons 0;
#X obj 41 33 inlet;
#X obj 41 86 unpack 0 0;
#X obj 106 120 s \$0-byte2;
#X obj 41 140 s \$0-byte1;
#X connect 0 0 1 0;
#X connect 1 0 3 0;
#X connect 1 1 2 0;
#X restore 9 10 pd \$0-buttons;
#X obj 9 -117 r wiimote-command;
#X obj 9 -90 wiimote wiimote-command;
#X obj 88 113 *~ 0;
#X obj 140 89 / 127;
#X obj 144 61 hsl 128 15 0 127 0 0 empty empty empty -2 -8 0 10 -262144
-1 -1 1700 1;
#X obj 78 146 dac~;
#N canvas 0 0 354 225 \$0-accel 0;
#X obj 11 27 inlet;
#X obj 11 87 wiiAcc raw;
#X obj 11 151 s \$0-accelX;
#X obj 43 132 s \$0-accelY;
#X obj 76 113 s \$0-accelZ;
#X connect 0 0 1 0;
#X connect 1 0 2 0;
#X connect 1 1 3 0;
#X connect 1 2 4 0;
#X restore 31 -13 pd \$0-accel;
#X obj 429 -122 cnv 15 230 185 empty empty empty 20 12 0 14 -258113
-66577 0;
#X msg 473 10 disconnect;
#X obj 439 33 s wiimote-command;
#X msg 458 -60 reportClassic 1;
#X msg 450 -86 setLED 9;
#X obj 630 -101 bng 15 250 50 0 empty empty empty 17 7 0 10 -4034 -1
-1;
#N canvas 40 51 892 370 \$0-process-guitar 1;
#X obj 116 -197 inlet;
#X msg 18 -15 0;
#X msg 45 -15 1;
#X msg 72 -15 2;
#X msg 99 -15 3;
#X msg 126 -15 4;
#X msg 153 -15 5;
#X msg 180 -15 6;
#X msg 207 -15 7;
#X msg 234 -15 8;
#X msg 261 -15 9;
#X msg 288 -15 10;
#X msg 315 -15 11;
#X msg 342 -15 12;
#X floatatom 184 53 5 0 0 0 - - -;
#X obj 35 -67 sel 16400 16448 16392 16416 16464 16408 16456 16480 16424
16432 16472 16488 16504;
#X msg 18 -15 0;
#X msg 45 -15 1;
#X msg 72 -15 2;
#X msg 99 -15 3;
#X msg 126 -15 4;
#X msg 153 -15 5;
#X msg 180 -15 6;
#X msg 207 -15 7;
#X msg 234 -15 8;
#X msg 261 -15 9;
#X msg 288 -15 10;
#X msg 315 -15 11;
#X msg 342 -15 12;
#X msg 488 -29 4;
#X msg 515 -29 5;
#X msg 542 -29 7;
#X msg 569 -29 8;
#X msg 596 -29 10;
#X msg 623 -29 12;
#X msg 650 -29 14;
#X msg 677 -29 16;
#X msg 704 -29 17;
#X msg 731 -29 19;
#X msg 758 -29 20;
#X msg 785 -29 22;
#X msg 812 -29 24;
#X floatatom 73 -179 5 0 0 0 - - -;
#X msg 461 -29 2;
#X msg 434 -29 0;
#X obj 475 -66 sel 17 65 9 33 81 25 73 97 41 49 89 105 121 113 57;
#N canvas 485 247 336 325 \$0-minor-chord 0;
#X obj 113 103 + 60;
#X obj 198 103 + 65;
#X obj 70 136 mtof;
#X obj 113 136 mtof;
#X obj 156 136 mtof;
#X obj 198 136 mtof;
#X obj 70 189 osc~;
#X obj 113 188 osc~;
#X obj 156 188 osc~;
#X obj 198 187 osc~;
#X obj 197 220 throw~ \$0-audio-out;
#X obj 157 241 throw~ \$0-audio-out;
#X obj 114 262 throw~ \$0-audio-out;
#X obj 69 283 throw~ \$0-audio-out;
#X obj 156 103 + 67;
#X obj 70 103 + 72;
#X obj 86 47 sel -1;
#X floatatom 16 153 5 0 0 0 - - -;
#X obj 86 11 inlet;
#X text 131 48 value of -1 disables output;
#X connect 0 0 3 0;
#X connect 1 0 5 0;
#X connect 2 0 6 0;
#X connect 3 0 7 0;
#X connect 4 0 8 0;
#X connect 5 0 9 0;
#X connect 6 0 13 0;
#X connect 7 0 12 0;
#X connect 8 0 11 0;
#X connect 9 0 10 0;
#X connect 14 0 4 0;
#X connect 15 0 2 0;
#X connect 16 0 17 0;
#X connect 16 1 15 0;
#X connect 16 1 0 0;
#X connect 16 1 14 0;
#X connect 16 1 1 0;
#X connect 17 0 9 0;
#X connect 17 0 8 0;
#X connect 17 0 7 0;
#X connect 17 0 6 0;
#X connect 18 0 16 0;
#X restore 610 88 pd \$0-minor-chord;
#X msg 846 -29 -1;
#N canvas 23 364 402 347 \$0-lame-organ 0;
#X obj 149 135 mtof;
#X floatatom 149 162 5 0 0 0 - - -;
#X obj 149 107 + 60;
#X obj 149 267 osc~;
#X obj 150 314 throw~ \$0-audio-out;
#X obj 67 107 + 65;
#X obj 67 133 mtof;
#X floatatom 67 163 5 0 0 0 - - -;
#X obj 67 267 osc~;
#X obj 24 313 throw~ \$0-audio-out;
#X obj 235 138 nbx 5 14 -1e+37 1e+37 0 0 empty \$0-whammy empty 0 -8
0 10 -262144 -1 -1 16 256;
#X obj 149 211 +;
#X obj 194 191 * 10;
#X obj 235 169 - 15;
#X obj 45 56 sel -1;
#X obj 45 14 inlet;
#X floatatom 23 239 5 0 0 0 - - -;
#X text 207 119 reads value from whammy bar;
#X text 91 53 value of -1 disables output;
#X connect 0 0 1 0;
#X connect 1 0 11 0;
#X connect 2 0 0 0;
#X connect 3 0 4 0;
#X connect 5 0 6 0;
#X connect 6 0 7 0;
#X connect 7 0 8 0;
#X connect 8 0 9 0;
#X connect 10 0 13 0;
#X connect 11 0 3 0;
#X connect 12 0 11 1;
#X connect 13 0 12 0;
#X connect 14 0 16 0;
#X connect 14 1 2 0;
#X connect 14 1 5 0;
#X connect 15 0 14 0;
#X connect 16 0 8 0;
#X connect 16 0 3 0;
#X restore 184 85 pd \$0-lame-organ;
#X floatatom 610 43 5 0 0 0 - - -;
#X msg 376 -15 -1;
#X text 48 -82 Down Stroke;
#X text 484 -83 Up Stroke;
#N canvas 650 323 450 300 \$0-lead-tone 0;
#X obj 31 19 inlet;
#X obj 31 57 sel -1;
#X msg 10 94 0;
#X obj 69 94 + 72;
#X obj 69 130 mtof;
#X obj 69 176 osc~;
#X obj 68 233 throw~ \$0-audio-out;
#X floatatom 125 19 5 0 0 0 - #0-whammy -;
#X obj 125 48 sel 19 20 21 22 23 24 25 26;
#X msg 182 96 -12;
#X msg 225 96 0;
#X obj 196 133 +;
#X obj 196 163 mtof;
#X obj 196 233 throw~ \$0-audio-out;
#X connect 0 0 1 0;
#X connect 1 0 2 0;
#X connect 1 0 3 0;
#X connect 2 0 5 0;
#X connect 3 0 4 0;
#X connect 3 0 11 0;
#X connect 4 0 5 0;
#X connect 5 0 6 0;
#X connect 7 0 8 0;
#X connect 8 0 9 0;
#X connect 8 1 9 0;
#X connect 8 2 9 0;
#X connect 8 3 9 0;
#X connect 8 4 9 0;
#X connect 8 5 9 0;
#X connect 8 6 9 0;
#X connect 8 7 9 0;
#X connect 8 8 10 0;
#X connect 9 0 11 1;
#X connect 10 0 11 1;
#X connect 11 0 12 0;
#X connect 12 0 13 0;
#X restore 184 122 pd \$0-lead-tone;
#X text 5 -188 Strum Up 1;
#X text 5 -176 Green 16;
#X text 6 -165 Red 64;
#X text 5 -153 Yellow 8;
#X text 6 -141 Blue 32;
#X text 6 -130 Orange 128;
#X text 5 -200 Strum Down 16384;
#X text 4 -216 input values for buttons;
#X text 122 -82 G R Y B GR GY RY RB YB GB GRY RYB GRYB;
#X text 543 -83 G R Y B GR GY RY RB YB GB GRY RYB GRYB GRB GYB;
#X connect 0 0 15 0;
#X connect 0 0 42 0;
#X connect 0 0 45 0;
#X connect 1 0 14 0;
#X connect 2 0 14 0;
#X connect 3 0 14 0;
#X connect 4 0 14 0;
#X connect 5 0 14 0;
#X connect 6 0 14 0;
#X connect 7 0 14 0;
#X connect 8 0 14 0;
#X connect 9 0 14 0;
#X connect 10 0 14 0;
#X connect 11 0 14 0;
#X connect 12 0 14 0;
#X connect 13 0 14 0;
#X connect 14 0 48 0;
#X connect 15 0 1 0;
#X connect 15 1 2 0;
#X connect 15 2 3 0;
#X connect 15 3 4 0;
#X connect 15 4 5 0;
#X connect 15 5 6 0;
#X connect 15 6 7 0;
#X connect 15 7 8 0;
#X connect 15 8 9 0;
#X connect 15 9 10 0;
#X connect 15 10 11 0;
#X connect 15 11 12 0;
#X connect 15 12 13 0;
#X connect 15 13 50 0;
#X connect 29 0 49 0;
#X connect 30 0 49 0;
#X connect 31 0 49 0;
#X connect 32 0 49 0;
#X connect 33 0 49 0;
#X connect 34 0 49 0;
#X connect 35 0 49 0;
#X connect 36 0 49 0;
#X connect 37 0 49 0;
#X connect 38 0 49 0;
#X connect 39 0 49 0;
#X connect 40 0 49 0;
#X connect 41 0 49 0;
#X connect 43 0 49 0;
#X connect 44 0 49 0;
#X connect 45 0 44 0;
#X connect 45 1 43 0;
#X connect 45 2 29 0;
#X connect 45 3 30 0;
#X connect 45 4 31 0;
#X connect 45 5 32 0;
#X connect 45 6 33 0;
#X connect 45 7 34 0;
#X connect 45 8 35 0;
#X connect 45 9 36 0;
#X connect 45 10 37 0;
#X connect 45 11 38 0;
#X connect 45 12 39 0;
#X connect 45 13 40 0;
#X connect 45 14 41 0;
#X connect 45 15 47 0;
#X connect 47 0 49 0;
#X connect 49 0 46 0;
#X connect 50 0 14 0;
#X restore 76 -35 pd \$0-process-guitar;
#X obj 87 36 catch~ \$0-audio-out;
#X msg 464 -34 reportAcceleration 1;
#N canvas 0 0 450 300 \$0-guitar-accel 0;
#X obj 136 76 inlet;
#X obj 136 109 unpack 0 0 0;
#X obj 215 129 s \$0-nc-accZ-set;
#X obj 136 167 s \$0-nc-accX-set;
#X obj 175 148 s \$0-whammy;
#X connect 0 0 1 0;
#X connect 1 0 3 0;
#X connect 1 1 4 0;
#X connect 1 2 2 0;
#X restore 99 -57 pd \$0-guitar-accel;
#X msg 470 -12 reportNunchuk 1;
#X text 408 145 Uses the Youngmusic Wiilib PD external. It can be found
here. http://youngmusic.org/wiki/index.php/Wiilib;
#X msg 439 -113 discover;
#X text 6 -148 This patch uses the guitar controller for the wii and
a bluetooth interface.;
#X text 290 69 On the wiimote press 1 + 2 Click on discover and wait
until the wiimote connects. Click on the green bang. Click on disconnect
to turn off the wiimote.;
#X connect 1 0 2 0;
#X connect 2 0 0 0;
#X connect 2 1 7 0;
#X connect 2 3 14 0;
#X connect 2 4 17 0;
#X connect 3 0 6 0;
#X connect 3 0 6 1;
#X connect 4 0 3 1;
#X connect 5 0 4 0;
#X connect 9 0 10 0;
#X connect 11 0 10 0;
#X connect 12 0 10 0;
#X connect 13 0 12 0;
#X connect 13 0 11 0;
#X connect 13 0 16 0;
#X connect 13 0 18 0;
#X connect 15 0 3 0;
#X connect 16 0 10 0;
#X connect 18 0 10 0;
#X connect 20 0 10 0;
